<svg xmlns="http://www.w3.org/2000/svg" xmlns:xlink="http://www.w3.org/1999/xlink" width="500" zoomAndPan="magnify" viewBox="0 0 375 374.999991" height="500" preserveAspectRatio="xMidYMid meet" version="1.2"><defs/><g id="7b30926708"><g style="fill:#f5f7fa;fill-opacity:1;"><g transform="translate(232.063987, 189.451537)"><path style="stroke:none" d="M 0.078125 2.59375 L 26.828125 1.84375 L 27.125 12.59375 C 27.195312 15.375 26.609375 17.507812 25.359375 19 C 24.117188 20.5 22.488281 21.28125 20.46875 21.34375 C 18.800781 21.382812 17.453125 20.96875 16.421875 20.09375 C 15.390625 19.21875 14.675781 18.140625 14.28125 16.859375 C 14.019531 18.390625 13.296875 19.664062 12.109375 20.6875 C 10.929688 21.71875 9.535156 22.253906 7.921875 22.296875 C 5.804688 22.359375 4.039062 21.644531 2.625 20.15625 C 1.207031 18.675781 0.457031 16.53125 0.375 13.71875 Z M 15.71875 7.0625 L 15.875 12.1875 C 15.90625 13.5625 16.25 14.609375 16.90625 15.328125 C 17.570312 16.054688 18.488281 16.40625 19.65625 16.375 C 20.769531 16.34375 21.640625 15.953125 22.265625 15.203125 C 22.898438 14.453125 23.195312 13.351562 23.15625 11.90625 L 23.015625 6.859375 Z M 4.171875 7.390625 L 4.328125 12.859375 C 4.367188 14.304688 4.738281 15.421875 5.4375 16.203125 C 6.132812 16.984375 7.097656 17.359375 8.328125 17.328125 C 9.578125 17.296875 10.546875 16.847656 11.234375 15.984375 C 11.929688 15.128906 12.257812 13.988281 12.21875 12.5625 L 12.0625 7.171875 Z M 4.171875 7.390625 "/></g></g><g style="fill:#f5f7fa;fill-opacity:1;"><g transform="translate(232.736967, 213.563054)"><path style="stroke:none" d="M 0.078125 2.59375 L 26.828125 1.84375 L 26.953125 6.75 L 0.203125 7.5 Z M 0.078125 2.59375 "/></g></g><g style="fill:#f5f7fa;fill-opacity:1;"><g transform="translate(233.018531, 223.650914)"><path style="stroke:none" d="M 0.046875 1.796875 L 3.796875 1.6875 L 23.046875 13.484375 L 22.703125 1.28125 L 26.796875 1.15625 L 27.296875 19 L 23.546875 19.109375 L 4.296875 7.265625 L 4.640625 19.71875 L 0.546875 19.828125 Z M 0.046875 1.796875 "/></g></g><g style="fill:#f5f7fa;fill-opacity:1;"><g transform="translate(233.622187, 245.278679)"><path style="stroke:none" d="M 0.046875 1.796875 L 3.796875 1.6875 L 23.046875 13.484375 L 22.703125 1.28125 L 26.796875 1.15625 L 27.296875 19 L 23.546875 19.109375 L 4.296875 7.265625 L 4.640625 19.71875 L 0.546875 19.828125 Z M 0.046875 1.796875 "/></g></g><path style=" stroke:none;fill-rule:nonzero;fill:#fae3b0;fill-opacity:1;" d="M 178.261719 173.792969 C 269.976562 149.746094 351.542969 183.652344 346.429688 251.035156 C 361.40625 208.707031 349.453125 171.488281 304.101562 149.242188 C 254.714844 124.910156 197.699219 122.390625 137.15625 146.9375 C 33.921875 188.765625 13.40625 270.332031 63.796875 319.210938 C 33.128906 256.363281 86.617188 197.835938 178.261719 173.792969 Z M 206.625 121.09375 L 206.625 44.640625 L 163.289062 44.640625 L 163.289062 128.511719 L 163.289062 44.640625 L 165.808594 127.71875 C 179.339844 124.191406 192.949219 121.886719 206.625 121.09375 Z M 163.359375 187.757812 L 163.359375 365.574219 C 173.007812 364.277344 182.582031 362.261719 191.722656 360.03125 C 196.546875 358.734375 201.585938 357.222656 206.699219 355.496094 L 206.699219 177.390625 C 197.84375 178.6875 188.988281 180.414062 180.636719 182.71875 C 174.734375 184.15625 168.902344 185.957031 163.359375 187.757812 Z M 105.335938 88.914062 L 148.675781 88.914062 L 148.675781 132.757812 C 143.851562 134.558594 138.8125 136.285156 133.988281 138.300781 C 124.339844 142.332031 114.765625 146.652344 105.335938 151.980469 Z M 148.675781 193.085938 L 148.675781 366.867188 C 134.203125 367.660156 119.519531 366.867188 105.335938 364.0625 L 105.335938 216.335938 C 118.511719 206.980469 133.484375 199.132812 148.675781 193.085938 Z M 264.433594 177.605469 L 264.433594 327.347656 C 251.546875 336.992188 236.574219 344.550781 221.097656 350.382812 L 221.097656 175.734375 C 235.566406 174.582031 250.253906 175.085938 264.433594 177.605469 Z M 221.097656 120.589844 L 221.097656 7.132812 L 264.433594 7.132812 L 264.433594 125.414062 C 250.253906 122.101562 235.566406 120.589844 221.097656 120.589844 Z M 86.617188 304.742188 C 71.140625 290.054688 65.09375 273.859375 68.117188 256.078125 C 55.445312 284.441406 62.789062 317.84375 86.617188 338.144531 Z M 313.027344 191.285156 C 331.242188 224.976562 320.660156 255.644531 281.640625 283.214844 L 281.640625 315.898438 C 340.671875 273.066406 352.046875 228 313.027344 191.285156 Z M 313.027344 191.285156 "/></g></svg>