<svg xmlns="http://www.w3.org/2000/svg" xmlns:xlink="http://www.w3.org/1999/xlink" width="500" zoomAndPan="magnify" viewBox="0 0 375 374.999991" height="500" preserveAspectRatio="xMidYMid meet" version="1.2"><defs><clipPath id="86a5399874"><path d="M 52 148.351562 L 121 148.351562 L 121 226.351562 L 52 226.351562 Z M 52 148.351562 "/></clipPath></defs><g id="57864cec8c"><g style="fill:#f5f7fa;fill-opacity:1;"><g transform="translate(137.03815, 200.624987)"><path style="stroke:none" d="M 2.59375 0 L 2.59375 -26.765625 L 13.34375 -26.765625 C 16.125 -26.765625 18.242188 -26.117188 19.703125 -24.828125 C 21.171875 -23.546875 21.90625 -21.894531 21.90625 -19.875 C 21.90625 -18.195312 21.453125 -16.851562 20.546875 -15.84375 C 19.640625 -14.84375 18.539062 -14.160156 17.25 -13.796875 C 18.769531 -13.492188 20.023438 -12.738281 21.015625 -11.53125 C 22.015625 -10.320312 22.515625 -8.910156 22.515625 -7.296875 C 22.515625 -5.179688 21.75 -3.4375 20.21875 -2.0625 C 18.695312 -0.6875 16.53125 0 13.71875 0 Z M 7.5 -15.515625 L 12.625 -15.515625 C 14 -15.515625 15.054688 -15.832031 15.796875 -16.46875 C 16.535156 -17.113281 16.90625 -18.019531 16.90625 -19.1875 C 16.90625 -20.3125 16.539062 -21.195312 15.8125 -21.84375 C 15.082031 -22.5 13.992188 -22.828125 12.546875 -22.828125 L 7.5 -22.828125 Z M 7.5 -3.96875 L 12.96875 -3.96875 C 14.414062 -3.96875 15.539062 -4.304688 16.34375 -4.984375 C 17.144531 -5.660156 17.546875 -6.613281 17.546875 -7.84375 C 17.546875 -9.09375 17.125 -10.070312 16.28125 -10.78125 C 15.445312 -11.5 14.316406 -11.859375 12.890625 -11.859375 L 7.5 -11.859375 Z M 7.5 -3.96875 "/></g></g><g style="fill:#f5f7fa;fill-opacity:1;"><g transform="translate(161.159055, 200.624987)"><path style="stroke:none" d="M 2.59375 0 L 2.59375 -26.765625 L 7.5 -26.765625 L 7.5 0 Z M 2.59375 0 "/></g></g><g style="fill:#f5f7fa;fill-opacity:1;"><g transform="translate(171.250844, 200.624987)"><path style="stroke:none" d="M 1.796875 0 L 1.796875 -3.75 L 14.109375 -22.671875 L 1.90625 -22.671875 L 1.90625 -26.765625 L 19.765625 -26.765625 L 19.765625 -23.015625 L 7.375 -4.09375 L 19.84375 -4.09375 L 19.84375 0 Z M 1.796875 0 "/></g></g><g style="fill:#f5f7fa;fill-opacity:1;"><g transform="translate(192.887031, 200.624987)"><path style="stroke:none" d="M 1.796875 0 L 1.796875 -3.75 L 14.109375 -22.671875 L 1.90625 -22.671875 L 1.90625 -26.765625 L 19.765625 -26.765625 L 19.765625 -23.015625 L 7.375 -4.09375 L 19.84375 -4.09375 L 19.84375 0 Z M 1.796875 0 "/></g></g><g clip-rule="nonzero" clip-path="url(#86a5399874)"><path style=" stroke:none;fill-rule:nonzero;fill:#fae3b0;fill-opacity:1;" d="M 83.128906 184.414062 C 102.941406 179.21875 120.5625 186.542969 119.457031 201.097656 C 122.691406 191.957031 120.113281 183.914062 110.3125 179.109375 C 99.644531 173.851562 87.328125 173.308594 74.25 178.613281 C 51.949219 187.648438 47.519531 205.265625 58.40625 215.828125 C 51.78125 202.25 63.335938 189.605469 83.128906 184.414062 Z M 89.257812 173.027344 L 89.257812 156.515625 L 79.894531 156.515625 L 79.894531 174.632812 L 79.894531 156.515625 L 80.441406 174.460938 C 83.363281 173.699219 86.304688 173.199219 89.257812 173.027344 Z M 79.910156 187.429688 L 79.910156 225.839844 C 81.996094 225.5625 84.0625 225.125 86.039062 224.644531 C 87.082031 224.363281 88.167969 224.039062 89.273438 223.664062 L 89.273438 185.191406 C 87.359375 185.46875 85.449219 185.84375 83.644531 186.339844 C 82.367188 186.652344 81.109375 187.039062 79.910156 187.429688 Z M 67.378906 166.078125 L 76.738281 166.078125 L 76.738281 175.546875 C 75.699219 175.9375 74.609375 176.3125 73.566406 176.746094 C 71.484375 177.617188 69.414062 178.550781 67.378906 179.699219 Z M 76.738281 188.582031 L 76.738281 226.121094 C 73.613281 226.292969 70.441406 226.121094 67.378906 225.515625 L 67.378906 193.605469 C 70.222656 191.582031 73.457031 189.886719 76.738281 188.582031 Z M 101.746094 185.238281 L 101.746094 217.582031 C 98.960938 219.667969 95.726562 221.300781 92.382812 222.558594 L 92.382812 184.832031 C 95.507812 184.582031 98.683594 184.691406 101.746094 185.238281 Z M 92.382812 172.921875 L 92.382812 148.410156 L 101.746094 148.410156 L 101.746094 173.960938 C 98.683594 173.246094 95.507812 172.921875 92.382812 172.921875 Z M 63.335938 212.699219 C 59.992188 209.527344 58.683594 206.027344 59.335938 202.1875 C 56.601562 208.316406 58.1875 215.53125 63.335938 219.917969 Z M 112.242188 188.191406 C 116.175781 195.46875 113.890625 202.09375 105.460938 208.050781 L 105.460938 215.109375 C 118.214844 205.859375 120.671875 196.121094 112.242188 188.191406 Z M 112.242188 188.191406 "/></g><g style="fill:#f5f7fa;fill-opacity:1;"><g transform="translate(214.894883, 200.624987)"><path style="stroke:none" d="M 2.828125 0 L 2.828125 -26.765625 L 19.125 -26.765625 L 19.125 -24.125 L 6.046875 -24.125 L 6.046875 -14.71875 L 17.171875 -14.71875 L 17.171875 -12.125 L 6.046875 -12.125 L 6.046875 0 Z M 2.828125 0 "/></g></g><g style="fill:#f5f7fa;fill-opacity:1;"><g transform="translate(235.307823, 200.624987)"><path style="stroke:none" d="M 2.828125 0 L 2.828125 -26.765625 L 6.046875 -26.765625 L 6.046875 -2.5625 L 18.5 -2.5625 L 18.5 0 Z M 2.828125 0 "/></g></g><g style="fill:#f5f7fa;fill-opacity:1;"><g transform="translate(255.376731, 200.624987)"><path style="stroke:none" d="M 14.984375 0.453125 C 12.359375 0.453125 10.054688 -0.125 8.078125 -1.28125 C 6.109375 -2.4375 4.566406 -4.0625 3.453125 -6.15625 C 2.347656 -8.25 1.796875 -10.65625 1.796875 -13.375 C 1.796875 -16.101562 2.347656 -18.503906 3.453125 -20.578125 C 4.566406 -22.660156 6.109375 -24.285156 8.078125 -25.453125 C 10.054688 -26.628906 12.359375 -27.21875 14.984375 -27.21875 C 17.640625 -27.21875 19.953125 -26.628906 21.921875 -25.453125 C 23.898438 -24.285156 25.4375 -22.660156 26.53125 -20.578125 C 27.625 -18.503906 28.171875 -16.101562 28.171875 -13.375 C 28.171875 -10.65625 27.625 -8.25 26.53125 -6.15625 C 25.4375 -4.0625 23.898438 -2.4375 21.921875 -1.28125 C 19.953125 -0.125 17.640625 0.453125 14.984375 0.453125 Z M 14.984375 -2.375 C 16.953125 -2.375 18.679688 -2.8125 20.171875 -3.6875 C 21.660156 -4.570312 22.816406 -5.832031 23.640625 -7.46875 C 24.472656 -9.113281 24.890625 -11.082031 24.890625 -13.375 C 24.890625 -15.675781 24.472656 -17.640625 23.640625 -19.265625 C 22.816406 -20.898438 21.660156 -22.15625 20.171875 -23.03125 C 18.679688 -23.914062 16.953125 -24.359375 14.984375 -24.359375 C 13.023438 -24.359375 11.300781 -23.914062 9.8125 -23.03125 C 8.320312 -22.15625 7.160156 -20.898438 6.328125 -19.265625 C 5.492188 -17.640625 5.078125 -15.675781 5.078125 -13.375 C 5.078125 -11.082031 5.492188 -9.113281 6.328125 -7.46875 C 7.160156 -5.832031 8.320312 -4.570312 9.8125 -3.6875 C 11.300781 -2.8125 13.023438 -2.375 14.984375 -2.375 Z M 14.984375 -2.375 "/></g></g><g style="fill:#f5f7fa;fill-opacity:1;"><g transform="translate(285.346299, 200.624987)"><path style="stroke:none" d="M 8.328125 0.03125 L 1 -26.765625 L 4.4375 -26.765625 L 10.203125 -3.78125 L 16.78125 -26.765625 L 20.34375 -26.765625 L 26.71875 -3.78125 L 32.578125 -26.765625 L 36.015625 -26.765625 L 28.515625 0 L 24.859375 0 L 18.46875 -22.09375 L 11.921875 0 Z M 8.328125 0.03125 "/></g></g></g></svg>